<svg width="27" height="28" viewBox="0 0 27 28" fill="none" xmlns="http://www.w3.org/2000/svg">
<path d="M10.9372 12.6094L1.76024 21.7863C0.746586 22.7999 0.746586 24.4435 1.76024 25.4571C2.77389 26.4708 4.41735 26.4708 5.431 25.4571L14.6079 16.2802" stroke="#1549F3" stroke-width="2" stroke-linecap="round" stroke-linejoin="round"/>
<path d="M20.2066 16.752L25.2399 21.7853C26.2536 22.7989 26.2536 24.4424 25.2399 25.456C24.2263 26.4697 22.5828 26.4697 21.5692 25.456L13.5117 17.3987" stroke="#1549F3" stroke-width="2" stroke-linecap="round" stroke-linejoin="round"/>
<path d="M6.63115 6.50615L10.3043 10.1793M6.63115 6.50615L3.87808 7.42385L1.125 2.83539L2.96038 1L7.54885 3.75308L6.63115 6.50615Z" stroke="#1549F3" stroke-width="2" stroke-linecap="round" stroke-linejoin="round"/>
<path d="M10.9379 12.6093C9.84277 9.81509 10.0569 6.14879 12.3145 3.89123C14.572 1.63366 18.7382 1.13816 21.0325 2.5147L17.0863 6.46092L16.7195 10.4985L20.757 10.1317L24.7032 6.18546C26.0798 8.47969 25.5843 12.646 23.3268 14.9036C21.0691 17.1611 17.4029 17.3752 14.6087 16.28" stroke="#1549F3" stroke-width="2" stroke-linecap="round" stroke-linejoin="round"/>
</svg>
