<?xml version="1.0" encoding="UTF-8"?>
<svg id="Logos_pt" data-name="Logos pt" xmlns="http://www.w3.org/2000/svg" viewBox="0 0 656.82 209.12">
  <defs>
    <style>
      
      .cls-1 {
        font-size: 134px;
        letter-spacing: 0em;
      }

      .cls-2 {
        font-family: Inter-Regular, 'Inter Regular';
      }

      .cls-3 {
        stroke-width: 0px;
      }

      .cls-4 {
        font-size: 102px;
        letter-spacing: .04em;
      }
    </style>
  </defs>
  <g id="Logo_134_pt" data-name="Logo 134 pt">
    <text class="cls-2" transform="translate(192.82 137.04)"><tspan class="cls-4" x="0" y="0">e</tspan><tspan class="cls-1" x="55.18" y="0">SWIT</tspan></text>
    <g>
      <path class="cls-3" d="m43.39,79.08c0,6.48,6.94,12.48,11.88,12.48h12.94c7.12,0,21.64-3.9,23.06-17.85v-7.3c0-4.29,2.73-7.79,6.56-7.84,3.82.04,6.56,3.55,6.56,7.84v7.3c1.42,13.95,15.95,17.85,23.06,17.85h9.2c12.16,0,15.62-7.53,15.62-12.88,0-2.02.03-14.96.05-24.8.01-6.29-5.09-11.39-11.38-11.39H54.73c-6.29,0-11.39,5.09-11.38,11.38.02,9.83.04,22.82.04,25.21Z"/>
      <path class="cls-3" d="m152.35,141.39s-.07-20.98-.07-24.71-2.08-12.64-13.68-12.64h-11.14c-7.12,0-21.64,3.9-23.06,17.85v7.3c0,4.29-2.73,7.79-6.56,7.84-3.83-.04-6.56-3.55-6.56-7.84v-7.3c-1.42-13.95-15.95-17.85-23.06-17.85h-11.56c-6.03,0-13.33,5.02-13.33,12.4,0,4.32.02,16.11.04,25.13.01,6.28,5.09,11.36,11.37,11.35,22.8-.02,72.74-.05,81.35-.05h4.87c6.29,0,11.39-5.1,11.39-11.39v-.09Z"/>
    </g>
  </g>
</svg>