<svg width="1240" height="820" viewBox="0 0 1240 820" fill="none" xmlns="http://www.w3.org/2000/svg">
<g filter="url(#filter0_d_1178_75)">
<mask id="mask0_1178_75" style="mask-type:alpha" maskUnits="userSpaceOnUse" x="40" y="36" width="1160" height="740">
<mask id="path-1-inside-1_1178_75" fill="white">
<path fill-rule="evenodd" clip-rule="evenodd" d="M39.9995 744C39.9995 761.673 54.3264 776 71.9995 776L899.595 776L1168 776C1185.67 776 1200 761.673 1200 744L1200 581.9C1200 573.063 1192.83 565.9 1184 565.9L1170.6 565.9L1166.74 565.9L1166.73 565.9C1162.37 565.898 1158.83 562.361 1158.83 557.998C1158.83 553.633 1162.37 550.096 1166.74 550.096L1170.6 550.096C1170.6 550.096 1170.6 550.096 1170.6 550.095V550.095C1170.6 550.095 1170.6 550.095 1170.6 550.095L1184 550.095C1192.83 550.095 1200 542.932 1200 534.095L1200 68C1200 50.3269 1185.67 36 1168 36L879.49 35.9999C879.49 35.9999 879.49 36 879.49 36.0002V36.0002C879.49 36.0003 879.49 36.0005 879.49 36.0005L72.0001 36.0003C54.327 36.0003 40.0001 50.3271 40.0001 68.0002L39.9995 744Z"/>
</mask>
<path fill-rule="evenodd" clip-rule="evenodd" d="M39.9995 744C39.9995 761.673 54.3264 776 71.9995 776L899.595 776L1168 776C1185.67 776 1200 761.673 1200 744L1200 581.9C1200 573.063 1192.83 565.9 1184 565.9L1170.6 565.9L1166.74 565.9L1166.73 565.9C1162.37 565.898 1158.83 562.361 1158.83 557.998C1158.83 553.633 1162.37 550.096 1166.74 550.096L1170.6 550.096C1170.6 550.096 1170.6 550.096 1170.6 550.095V550.095C1170.6 550.095 1170.6 550.095 1170.6 550.095L1184 550.095C1192.83 550.095 1200 542.932 1200 534.095L1200 68C1200 50.3269 1185.67 36 1168 36L879.49 35.9999C879.49 35.9999 879.49 36 879.49 36.0002V36.0002C879.49 36.0003 879.49 36.0005 879.49 36.0005L72.0001 36.0003C54.327 36.0003 40.0001 50.3271 40.0001 68.0002L39.9995 744Z" fill="white"/>
<path d="M899.595 776L899.595 775L899.595 776ZM1200 581.9L1201 581.9L1200 581.9ZM1184 565.9L1184 566.9L1184 565.9ZM1170.6 565.9L1170.6 564.9L1170.6 565.9ZM1166.74 565.9L1166.74 566.9L1166.74 565.9ZM1166.73 565.9L1166.73 566.9L1166.73 566.9L1166.73 565.9ZM1158.83 557.998L1157.83 557.998L1157.83 557.998L1158.83 557.998ZM1166.74 550.096L1166.74 549.096L1166.74 550.096ZM1184 550.095L1184 549.095L1184 550.095ZM1200 534.095L1201 534.095L1200 534.095ZM72.0001 36.0003L72.0001 37.0003L72.0001 36.0003ZM40.0001 68.0002L39.0001 68.0002L40.0001 68.0002ZM879.49 36.0005L879.49 35.0005L879.49 36.0005ZM1170.6 550.096L1170.6 551.096L1170.6 550.096ZM1170.6 550.095L1170.6 551.095L1170.6 550.095ZM39.9995 744L38.9995 744L39.9995 744ZM899.595 775L71.9995 775L71.9995 777L899.595 777L899.595 775ZM1168 775L899.595 775L899.595 777L1168 777L1168 775ZM1199 581.9L1199 744L1201 744L1201 581.9L1199 581.9ZM1184 566.9C1192.28 566.9 1199 573.615 1199 581.9L1201 581.9C1201 572.511 1193.39 564.9 1184 564.9L1184 566.9ZM1170.6 566.9L1184 566.9L1184 564.9L1170.6 564.9L1170.6 566.9ZM1166.74 566.9L1170.6 566.9L1170.6 564.9L1166.74 564.9L1166.74 566.9ZM1166.73 566.9L1166.74 566.9L1166.74 564.9L1166.73 564.9L1166.73 566.9ZM1157.83 557.998C1157.83 562.913 1161.82 566.898 1166.73 566.9L1166.73 564.9C1162.92 564.898 1159.83 561.808 1159.83 557.998L1157.83 557.998ZM1166.74 549.096C1161.82 549.096 1157.83 553.081 1157.83 557.998L1159.83 557.998C1159.83 554.186 1162.92 551.096 1166.74 551.096L1166.74 549.096ZM1170.6 549.096L1166.74 549.096L1166.74 551.096L1170.6 551.096L1170.6 549.096ZM1184 549.095L1170.6 549.095L1170.6 551.095L1184 551.095L1184 549.095ZM1199 534.095C1199 542.38 1192.28 549.095 1184 549.095L1184 551.095C1193.39 551.095 1201 543.484 1201 534.095L1199 534.095ZM1199 68L1199 534.095L1201 534.095L1201 68L1199 68ZM879.49 36.9999L1168 37L1168 35L879.49 34.9999L879.49 36.9999ZM72.0001 37.0003L879.49 37.0005L879.49 35.0005L72.0001 35.0003L72.0001 37.0003ZM40.9995 744L41.0001 68.0002L39.0001 68.0002L38.9995 744L40.9995 744ZM72.0001 35.0003C53.7747 35.0003 39.0001 49.7748 39.0001 68.0002L41.0001 68.0002C41.0001 50.8794 54.8793 37.0003 72.0001 37.0003L72.0001 35.0003ZM878.49 36.0002C878.49 35.7876 878.559 35.5447 878.738 35.341C878.926 35.126 879.2 35.0005 879.49 35.0005L879.49 37.0005C880.161 37.0005 880.49 36.4252 880.49 36.0002L878.49 36.0002ZM879.49 34.9999C878.938 34.9999 878.49 35.4477 878.49 36.0002L880.49 36.0002C880.49 36.5523 880.042 36.9999 879.49 36.9999L879.49 34.9999ZM1201 68C1201 49.7746 1186.22 35 1168 35L1168 37C1185.12 37 1199 50.8792 1199 68L1201 68ZM1170.6 551.096C1171.15 551.096 1171.6 550.648 1171.6 550.095L1169.6 550.095C1169.6 549.543 1170.04 549.096 1170.6 549.096L1170.6 551.096ZM1168 777C1186.22 777 1201 762.225 1201 744L1199 744C1199 761.121 1185.12 775 1168 775L1168 777ZM1171.6 550.095C1171.6 550.65 1171.15 551.095 1170.6 551.095L1170.6 549.095C1170.05 549.095 1169.6 549.54 1169.6 550.095L1171.6 550.095ZM71.9995 775C54.8787 775 40.9995 761.12 40.9995 744L38.9995 744C38.9995 762.225 53.7741 777 71.9995 777L71.9995 775Z" fill="black" mask="url(#path-1-inside-1_1178_75)"/>
</mask>
<g mask="url(#mask0_1178_75)">
<rect x="1238.22" y="776" width="1212.04" height="966.476" rx="32" transform="rotate(-180 1238.22 776)" fill="white"/>
</g>
</g>
<defs>
<filter id="filter0_d_1178_75" x="0" y="0" width="1240" height="820" filterUnits="userSpaceOnUse" color-interpolation-filters="sRGB">
<feFlood flood-opacity="0" result="BackgroundImageFix"/>
<feColorMatrix in="SourceAlpha" type="matrix" values="0 0 0 0 0 0 0 0 0 0 0 0 0 0 0 0 0 0 127 0" result="hardAlpha"/>
<feOffset dy="4"/>
<feGaussianBlur stdDeviation="20"/>
<feComposite in2="hardAlpha" operator="out"/>
<feColorMatrix type="matrix" values="0 0 0 0 0 0 0 0 0 0 0 0 0 0 0 0 0 0 0.1 0"/>
<feBlend mode="normal" in2="BackgroundImageFix" result="effect1_dropShadow_1178_75"/>
<feBlend mode="normal" in="SourceGraphic" in2="effect1_dropShadow_1178_75" result="shape"/>
</filter>
</defs>
</svg>
