<svg width="1160" height="741" viewBox="0 0 1160 741" fill="none" xmlns="http://www.w3.org/2000/svg">
<mask id="mask0_744_2491" style="mask-type:alpha" maskUnits="userSpaceOnUse" x="0" y="0" width="1160" height="741">
<mask id="path-1-inside-1_744_2491" fill="white">
<path fill-rule="evenodd" clip-rule="evenodd" d="M1160 32.5005C1160 14.8274 1145.67 0.500455 1128 0.500449L300.403 0.500167L32 0.500072C14.3269 0.500066 -1.2226e-05 14.8269 -2.36797e-05 32.5L-0.000128735 194.6C-0.000134462 203.437 7.16333 210.6 15.9999 210.6L29.4023 210.6L33.2627 210.6L33.266 210.6C37.6286 210.602 41.1647 214.139 41.1647 218.502C41.1647 222.867 37.6269 226.404 33.2627 226.404L29.4024 226.404C29.4024 226.404 29.4023 226.404 29.4023 226.405C29.4023 226.405 29.4023 226.405 29.4022 226.405L16.0011 226.405C7.16454 226.405 0.00109055 233.568 0.00108105 242.405L0.000579869 708.5C0.000560866 726.173 14.3274 740.5 32.0005 740.5L320.508 740.5C320.508 740.5 320.508 740.5 320.508 740.5C320.508 740.5 320.508 740.5 320.508 740.5L1128 740.5C1145.67 740.5 1160 726.173 1160 708.5L1160 32.5005Z"/>
</mask>
<path fill-rule="evenodd" clip-rule="evenodd" d="M1160 32.5005C1160 14.8274 1145.67 0.500455 1128 0.500449L300.403 0.500167L32 0.500072C14.3269 0.500066 -1.2226e-05 14.8269 -2.36797e-05 32.5L-0.000128735 194.6C-0.000134462 203.437 7.16333 210.6 15.9999 210.6L29.4023 210.6L33.2627 210.6L33.266 210.6C37.6286 210.602 41.1647 214.139 41.1647 218.502C41.1647 222.867 37.6269 226.404 33.2627 226.404L29.4024 226.404C29.4024 226.404 29.4023 226.404 29.4023 226.405C29.4023 226.405 29.4023 226.405 29.4022 226.405L16.0011 226.405C7.16454 226.405 0.00109055 233.568 0.00108105 242.405L0.000579869 708.5C0.000560866 726.173 14.3274 740.5 32.0005 740.5L320.508 740.5C320.508 740.5 320.508 740.5 320.508 740.5C320.508 740.5 320.508 740.5 320.508 740.5L1128 740.5C1145.67 740.5 1160 726.173 1160 708.5L1160 32.5005Z" fill="white"/>
<path d="M300.403 0.500167L300.403 1.50017L300.403 0.500167ZM-0.000128735 194.6L-1.00013 194.6L-0.000128735 194.6ZM15.9999 210.6L15.9999 209.6L15.9999 209.6L15.9999 210.6ZM29.4023 210.6L29.4023 211.6L29.4023 211.6L29.4023 210.6ZM33.2627 210.6L33.2627 209.6L33.2627 209.6L33.2627 210.6ZM33.266 210.6L33.2664 209.6L33.266 209.6L33.266 210.6ZM41.1647 218.502L42.1647 218.502L41.1647 218.502ZM33.2627 226.404L33.2627 225.404L33.2627 225.404L33.2627 226.404ZM16.0011 226.405L16.0011 225.405L16.0011 226.405ZM0.00108105 242.405L-0.998919 242.405L0.00108105 242.405ZM1128 740.5L1128 739.5L1128 740.5ZM1160 708.5L1159 708.5L1160 708.5ZM320.508 740.5L320.508 741.5L320.508 740.5ZM29.4024 226.404L29.4024 225.404L29.4024 226.404ZM29.4022 226.405L29.4022 227.405L29.4022 226.405ZM1160 32.5005L1161 32.5005L1160 32.5005ZM300.403 1.50017L1128 1.50045L1128 -0.499551L300.403 -0.499833L300.403 1.50017ZM32 1.50007L300.403 1.50017L300.403 -0.499833L32 -0.499928L32 1.50007ZM0.999871 194.6L0.999976 32.5L-1.00002 32.5L-1.00013 194.6L0.999871 194.6ZM15.9999 209.6C7.71562 209.6 0.999866 202.885 0.999871 194.6L-1.00013 194.6C-1.00013 203.989 6.61105 211.6 15.9999 211.6L15.9999 209.6ZM29.4023 209.6L15.9999 209.6L15.9999 211.6L29.4023 211.6L29.4023 209.6ZM33.2627 209.6L29.4023 209.6L29.4023 211.6L33.2627 211.6L33.2627 209.6ZM33.266 209.6L33.2627 209.6L33.2627 211.6L33.266 211.6L33.266 209.6ZM42.1647 218.502C42.1647 213.587 38.1812 209.602 33.2664 209.6L33.2656 211.6C37.0761 211.602 40.1647 214.692 40.1647 218.502L42.1647 218.502ZM33.2627 227.404C38.1792 227.404 42.1647 223.419 42.1647 218.502L40.1647 218.502C40.1647 222.314 37.0746 225.404 33.2627 225.404L33.2627 227.404ZM29.4024 227.404L33.2627 227.404L33.2627 225.404L29.4024 225.404L29.4024 227.404ZM16.0011 227.405L29.4022 227.405L29.4022 225.405L16.0011 225.405L16.0011 227.405ZM1.00108 242.405C1.00109 234.12 7.71683 227.405 16.0011 227.405L16.0011 225.405C6.61226 225.405 -0.998909 233.016 -0.998919 242.405L1.00108 242.405ZM1.00058 708.5L1.00108 242.405L-0.998919 242.405L-0.99942 708.5L1.00058 708.5ZM320.508 739.5L32.0005 739.5L32.0005 741.5L320.508 741.5L320.508 739.5ZM1128 739.5L320.508 739.5L320.508 741.5L1128 741.5L1128 739.5ZM1159 32.5005L1159 708.5L1161 708.5L1161 32.5005L1159 32.5005ZM1128 741.5C1146.22 741.5 1161 726.725 1161 708.5L1159 708.5C1159 725.621 1145.12 739.5 1128 739.5L1128 741.5ZM321.508 740.5C321.508 740.712 321.439 740.955 321.26 741.159C321.072 741.374 320.798 741.5 320.508 741.5L320.508 739.5C319.837 739.5 319.508 740.075 319.508 740.5L321.508 740.5ZM320.508 741.5C321.06 741.5 321.508 741.052 321.508 740.5L319.508 740.5C319.508 739.948 319.956 739.5 320.508 739.5L320.508 741.5ZM-0.99942 708.5C-0.99944 726.725 13.7751 741.5 32.0005 741.5L32.0005 739.5C14.8797 739.5 1.00056 725.621 1.00058 708.5L-0.99942 708.5ZM29.4024 225.404C28.8501 225.404 28.4023 225.852 28.4023 226.405L30.4023 226.405C30.4023 226.957 29.9546 227.404 29.4024 227.404L29.4024 225.404ZM32 -0.499928C13.7746 -0.499934 -1.00001 14.2746 -1.00002 32.5L0.999976 32.5C0.999987 15.3792 14.8792 1.50007 32 1.50007L32 -0.499928ZM28.4023 226.405C28.4023 225.854 28.8482 225.405 29.4022 225.405L29.4022 227.405C29.9563 227.405 30.4023 226.955 30.4023 226.405L28.4023 226.405ZM1128 1.50045C1145.12 1.50045 1159 15.3796 1159 32.5005L1161 32.5005C1161 14.2751 1146.22 -0.499545 1128 -0.499551L1128 1.50045Z" fill="black" mask="url(#path-1-inside-1_744_2491)"/>
</mask>
<g mask="url(#mask0_744_2491)">
<rect x="-38.2246" y="0.5" width="1212.04" height="966.476" rx="32" fill="#0057FF"/>
</g>
</svg>
