<svg width="19" height="33" viewBox="0 0 19 33" fill="none" xmlns="http://www.w3.org/2000/svg">
<path d="M14.7713 13.9111L11.8236 23.3434H6.10387L3.15626 13.9111C2.31574 11.2214 2.84957 8.29051 4.58438 6.06993L8.28767 1.32976C8.63114 0.890081 9.29635 0.890081 9.63982 1.32976L13.3431 6.06993C15.0779 8.29051 15.6117 11.2214 14.7713 13.9111Z" stroke="#1549F3" stroke-width="2" stroke-linecap="round" stroke-linejoin="round"/>
<path d="M6.10352 27.6328C6.10352 30.4927 8.96339 31.9226 8.96339 31.9226C8.96339 31.9226 11.8233 30.4927 11.8233 27.6328" stroke="#1549F3" stroke-width="2" stroke-linecap="round" stroke-linejoin="round"/>
<path d="M3.95838 16.9082C-1.0464 20.483 1.81348 26.2028 1.81348 26.2028L6.10329 23.3429" stroke="#1549F3" stroke-width="2" stroke-linecap="round" stroke-linejoin="round"/>
<path d="M14.5844 16.9082C19.5891 20.483 16.7293 26.2028 16.7293 26.2028L12.4395 23.3429" stroke="#1549F3" stroke-width="2" stroke-linecap="round" stroke-linejoin="round"/>
<path d="M8.96339 14.7647C7.38388 14.7647 6.10352 13.4843 6.10352 11.9048C6.10352 10.3253 7.38388 9.04492 8.96339 9.04492C10.5429 9.04492 11.8233 10.3253 11.8233 11.9048C11.8233 13.4843 10.5429 14.7647 8.96339 14.7647Z" stroke="#1549F3" stroke-width="2" stroke-linecap="round" stroke-linejoin="round"/>
</svg>
