<svg width="30" height="29" viewBox="0 0 30 29" fill="none" xmlns="http://www.w3.org/2000/svg">
<path d="M15 17C16.1044 17 17 16.1044 17 15C17 13.8956 16.1044 13 15 13C13.8956 13 13 13.8956 13 15C13 16.1044 13.8956 17 15 17Z" fill="#1549F3"/>
<path d="M22 17C23.1044 17 24 16.1044 24 15C24 13.8956 23.1044 13 22 13C20.8956 13 20 13.8956 20 15C20 16.1044 20.8956 17 22 17Z" fill="#1549F3"/>
<path d="M8 16C8.55228 16 9 15.5522 9 15C9 14.4478 8.55228 14 8 14C7.44772 14 7 14.4478 7 15C7 15.5522 7.44772 16 8 16Z" fill="#1549F3" stroke="#1549F3" stroke-width="2" stroke-linecap="round" stroke-linejoin="round"/>
<path d="M15 27C22.1796 27 28 21.4035 28 14.5C28 7.59644 22.1796 2 15 2C7.82029 2 2 7.59644 2 14.5C2 16.7768 2.63306 18.9114 3.73917 20.75L2.65 26.375L8.5 25.3278C10.4121 26.3913 12.6322 27 15 27Z" stroke="#1549F3" stroke-width="3" stroke-linecap="round" stroke-linejoin="round"/>
</svg>
